# xmcd
#
# Track frame offsets:
# 150
# 7120
# 22644
# 39571
# 54876
# 68082
# 80244
# 94285
# 113377
# 125471
# 143971
# 161731
# 175472
# 190636
# 205872
# 228741
# 240737
# 256947
# 269859
# 275883
# 284734
#
# Disc length: 3815 seconds
#
#
# Revision: 0
# Processed by: cddbd v1.5.1PL0 Copyright (c) Steve Scherf et al.
# Submitted via: FreeRIP 2.931 
#
DISCID=3a0ee515
DTITLE=NAS - THE MIX TAPE 2004
DYEAR=2004
DGENRE=Hip-Hop
TTITLE0=lights out-carry the crosso intro
TTITLE1=purple 2004 feat: Biggie Tupac
TTITLE2=fuck you feat: 50 cent rmx
TTITLE3=on the real (lost tapes 2)
TTITLE4=got yourself a gun (feat: biggie rmx)
TTITLE5=watch out (feat: Questlove)
TTITLE6=thungs mansion (feat: Tupac , jay-z . rmx)
TTITLE7=one love (rmx)
TTITLE8=too hot (feat 50 cent)
TTITLE9=heaven b/w jay-z 1st song
TTITLE10=doo rags (feat: Big L rmx)
TTITLE11=turn off the mics ( feat: Freddie Foxx)
TTITLE12=the world is yours (feat: Vibesman . rmx)
TTITLE13=the rise and fall (lost tapes)
TTITLE14=ny state of mind (feat: Billy Joel)
TTITLE15=threats is like (feat: Jay-z blend rmx)
TTITLE16=silent murder (feat Lloyd Banks blend rmx)
TTITLE17=blaze another fiftty (LOP rmx)
TTITLE18=in your area
TTITLE19=carry the cross (live)
TTITLE20=outro - closing words
EXTD=
EXTT0=
EXTT1=
EXTT2=
EXTT3=
EXTT4=
EXTT5=
EXTT6=
EXTT7=
EXTT8=
EXTT9=
EXTT10=
EXTT11=
EXTT12=
EXTT13=
EXTT14=
EXTT15=
EXTT16=
EXTT17=
EXTT18=
EXTT19=
EXTT20=
PLAYORDER=
